<svg width="70" height="70" viewBox="0 0 70 70" fill="none" xmlns="http://www.w3.org/2000/svg">
    <path d="M18.0312 59H33.6875V41.9375H28.0625V36.3125H33.6875V29.2812C33.6875 25.4042 36.8417 22.25 40.7188 22.25H47.75V27.875H42.125C40.5741 27.875 39.3125 29.1366 39.3125 30.6875V36.3125H47.4962L46.5587 41.9375H39.3125V59H51.9688C55.8458 59 59 55.8458 59 51.9688V18.0312C59 14.1542 55.8458 11 51.9688 11H18.0312C14.1542 11 11 14.1542 11 18.0312V51.9688C11 55.8458 14.1542 59 18.0312 59ZM13.8125 18.0312C13.8125 15.7051 15.7051 13.8125 18.0312 13.8125H51.9688C54.2949 13.8125 56.1875 15.7051 56.1875 18.0312V51.9688C56.1875 54.2949 54.2949 56.1875 51.9688 56.1875H42.125V44.75H48.9413L50.8163 33.5H42.125V30.6875H50.5625V19.4375H40.7188C35.2908 19.4375 30.875 23.8533 30.875 29.2812V33.5H25.25V44.75H30.875V56.1875H18.0312C15.7051 56.1875 13.8125 54.2949 13.8125 51.9688V18.0312Z"
          fill="#3F3D3A"/>
</svg>
