<svg width="70" height="70" viewBox="0 0 70 70" fill="none" xmlns="http://www.w3.org/2000/svg">
    <path d="M18.0312 59H51.9688C55.8458 59 59 55.8458 59 51.9688V18.0312C59 14.1542 55.8458 11 51.9688 11H18.0312C14.1542 11 11 14.1542 11 18.0312V51.9688C11 55.8458 14.1542 59 18.0312 59ZM13.8125 18.0312C13.8125 15.7051 15.7051 13.8125 18.0312 13.8125H51.9688C54.2949 13.8125 56.1875 15.7051 56.1875 18.0312V51.9688C56.1875 54.2949 54.2949 56.1875 51.9688 56.1875H18.0312C15.7051 56.1875 13.8125 54.2949 13.8125 51.9688V18.0312Z"
          fill="#3F3D3A"/>
    <path d="M35 47.6562C41.9785 47.6562 47.6562 41.9785 47.6562 35C47.6562 28.0215 41.9785 22.3438 35 22.3438C28.0215 22.3438 22.3438 28.0215 22.3438 35C22.3438 41.9785 28.0215 47.6562 35 47.6562ZM35 25.1562C40.428 25.1562 44.8438 29.572 44.8438 35C44.8438 40.428 40.428 44.8438 35 44.8438C29.572 44.8438 25.1562 40.428 25.1562 35C25.1562 29.572 29.572 25.1562 35 25.1562Z"
          fill="#3F3D3A"/>
    <path d="M49.0625 25.1562C51.3887 25.1562 53.2812 23.2637 53.2812 20.9375C53.2812 18.6113 51.3887 16.7188 49.0625 16.7188C46.7363 16.7188 44.8438 18.6113 44.8438 20.9375C44.8438 23.2637 46.7363 25.1562 49.0625 25.1562ZM49.0625 19.5312C49.8378 19.5312 50.4688 20.1622 50.4688 20.9375C50.4688 21.7128 49.8378 22.3438 49.0625 22.3438C48.2872 22.3438 47.6562 21.7128 47.6562 20.9375C47.6562 20.1622 48.2872 19.5312 49.0625 19.5312Z"
          fill="#3F3D3A"/>
</svg>
