<svg width="170" height="170" viewBox="0 0 170 170" fill="none" xmlns="http://www.w3.org/2000/svg">
    <path fill-rule="evenodd" clip-rule="evenodd"
          d="M127.5 118.867V140.117H42.5V118.867H47.8125V134.805H122.188V118.867H127.5ZM127.5 76.3672H122.188V60.4297H47.8125V76.3672H42.5V55.1172H127.5V76.3672ZM73.281 50.4688C66.902 44.8983 76.6069 30.7079 77.6953 29.2188C84.6517 19.7004 84.6082 16.6016 85 16.6016C85.3918 16.6016 85.3483 19.7004 92.3047 29.2188C93.4077 30.7278 103.755 45.0663 96.722 50.4688C96.648 45.0869 91.6669 38.1318 90.9766 37.1875C85.1481 29.2124 85.3284 26.5625 85 26.5625C84.6716 26.5625 84.8519 29.2124 79.0234 37.1875C78.3428 38.1188 73.435 45.1201 73.281 50.4688Z"
          fill="url(#paint0_radial)"/>
    <path d="M43.076 94.894C43.076 95.1172 43.0441 95.4678 42.9804 95.914C42.9166 96.3603 42.8847 96.6472 42.8529 96.7109C42.7254 97.2528 42.4704 97.8265 42.1197 98.464C41.7691 99.1015 41.3547 99.739 40.8766 100.313C40.4304 100.887 39.9841 101.397 39.5379 101.843C39.0597 102.289 38.6772 102.64 38.3585 102.863C38.0397 103.086 37.6254 103.341 37.1154 103.564C36.6054 103.787 35.9997 104.01 35.3304 104.233C33.9597 104.648 32.7804 104.871 31.7604 104.871C30.8997 104.871 30.1029 104.712 29.3697 104.393C28.6366 104.106 28.286 103.532 28.286 102.703C28.286 102.193 28.4135 101.811 28.6685 101.588C28.9554 101.365 29.4016 101.237 30.1029 101.237C30.8679 101.237 31.5054 101.365 32.0791 101.62C32.6529 101.875 33.131 102.002 33.5454 102.002C33.7685 102.002 34.2147 101.907 34.916 101.779C35.5854 101.588 36.1272 101.397 36.5097 101.11C36.956 100.823 37.4022 100.44 37.8804 99.994C38.3266 99.5159 38.7729 99.0378 39.1554 98.4959C39.5379 97.954 39.8566 97.4122 40.0797 96.8703C40.3347 96.3284 40.4304 95.7865 40.4304 95.3084C40.4304 94.6072 40.1435 93.9697 39.6016 93.4278C39.0279 92.854 38.3585 92.4397 37.6254 92.1209C36.8604 91.8022 36.191 91.6428 35.6491 91.6428C34.8204 91.6428 34.1829 91.7065 33.7685 91.834C33.3222 91.9615 32.876 92.1209 32.4935 92.3122C32.0791 92.5034 31.7285 92.599 31.4416 92.599C31.091 92.599 30.7722 92.5034 30.4216 92.2803C30.071 92.0572 29.8797 91.7703 29.8797 91.4515C29.8797 91.1647 29.9116 90.9097 30.0072 90.6865C30.1029 90.4953 30.2304 90.304 30.3579 90.1447C30.5172 89.9853 30.6766 89.8897 30.8679 89.794C31.0591 89.6984 31.2504 89.6347 31.4416 89.6028C31.6647 89.539 31.8879 89.5072 32.111 89.4753C32.366 89.4115 32.621 89.4115 32.876 89.3797C33.4179 89.3478 33.7366 89.284 33.8641 89.2203C34.5972 88.8059 35.3304 88.3278 36.0635 87.754C36.4779 87.4672 36.8285 87.1484 37.1791 86.8615C37.4979 86.5428 37.8166 86.224 38.1354 85.9053C38.741 85.2678 39.0279 84.7578 39.0279 84.3434C39.0279 83.8015 38.8047 83.3872 38.3585 83.1003C37.8804 82.8134 37.1472 82.6859 36.0954 82.6859C35.7447 82.6859 35.3941 82.6859 34.9797 82.7178C34.5972 82.7497 34.1829 82.8134 33.7685 82.8772C33.3541 82.9409 32.9397 83.0365 32.5254 83.1322C32.111 83.2278 31.6966 83.3234 31.2822 83.4509C30.8679 83.5784 30.4854 83.7378 30.1029 83.8972C29.7522 84.0247 29.4016 84.2159 29.0829 84.4072C28.7641 84.5984 28.4772 84.7897 28.2222 84.9809C27.9672 85.204 27.776 85.4272 27.6166 85.6503C27.521 85.7778 27.4572 86.0009 27.4254 86.2878C27.3935 86.5747 27.3616 87.0528 27.3297 87.6903C27.3297 88.009 27.2979 88.3597 27.2979 88.7422C27.2979 89.1247 27.266 89.539 27.266 90.0172C27.2341 90.4953 27.2022 90.8778 27.2022 91.2284C27.1704 91.5472 27.1704 91.834 27.1385 92.089C27.1066 92.2803 27.1066 92.5353 27.0429 92.8222C27.011 93.109 26.9791 93.4278 26.9154 93.8103C26.8197 94.5753 26.756 95.2128 26.6922 95.7547C26.6285 96.2965 26.5966 96.8384 26.5966 97.3165C26.5966 97.4759 26.5966 97.6672 26.6285 97.9222L26.6922 99.5159C26.7241 99.739 26.7241 99.9303 26.7241 100.09C26.7241 100.982 26.5966 101.652 26.3735 102.066C26.1185 102.48 25.736 102.703 25.1622 102.703C23.9191 102.703 23.3135 101.652 23.3135 99.5478C23.3135 99.2928 23.441 98.464 23.696 97.0297C23.951 95.6272 24.0785 94.7347 24.1104 94.384C24.1741 93.9059 24.206 93.4597 24.2379 93.0453C24.2697 92.599 24.3016 92.2165 24.3654 91.834C24.3972 91.4515 24.4291 90.9734 24.4929 90.4634C24.5566 89.9534 24.6204 89.3478 24.6841 88.6784C24.7479 88.264 24.7797 87.9134 24.8116 87.6584C24.8116 87.4034 24.8435 87.2122 24.8435 87.1165C24.8435 86.8615 24.8116 86.6065 24.716 86.2878C24.6841 86.1284 24.6522 86.0009 24.6522 85.8734C24.6204 85.7459 24.6204 85.6503 24.6204 85.5865C24.6204 84.8215 24.7479 84.1522 25.0347 83.6103C25.4172 82.8772 25.7041 82.4947 25.9272 82.4947C26.2779 82.4309 26.6285 82.3672 26.9472 82.3034C27.266 82.2397 27.5847 82.144 27.8716 82.0484C29.2104 81.6022 30.2941 81.2197 31.0591 80.9647C31.856 80.7097 32.366 80.5503 32.621 80.4865C33.0672 80.3272 33.5772 80.1997 34.0872 80.1359C34.3741 80.104 34.6929 80.0722 35.0754 80.0722C35.426 80.0403 35.8722 80.0403 36.3822 80.0403H37.2429C37.466 80.0403 37.7529 80.0722 38.1035 80.1997C38.4541 80.2953 38.8366 80.4547 39.1872 80.6459C39.5697 80.8372 39.9204 81.0284 40.2072 81.2834C40.526 81.5065 40.7491 81.7297 40.8766 81.9847C41.0041 82.2078 41.1316 82.5265 41.2591 82.9728C41.291 83.1959 41.3229 83.419 41.3547 83.6103C41.3866 83.7697 41.4185 83.929 41.4185 84.0884C41.4185 84.9172 41.0679 85.7778 40.3347 86.6703C39.6016 87.5628 38.5497 88.5509 37.1791 89.6665C37.9441 89.8259 38.6772 90.0809 39.4104 90.4315C40.1116 90.7822 40.7491 91.1965 41.291 91.6428C41.8329 92.1209 42.2472 92.6309 42.5979 93.2047C42.9166 93.7465 43.076 94.3203 43.076 94.894Z"
          fill="#1E130B"/>
    <path d="M60.8273 90.6546C60.8273 90.7183 60.8273 90.814 60.7954 90.9415C60.7954 91.0371 60.7635 91.1646 60.7317 91.2921C60.6998 91.3877 60.636 91.5152 60.5723 91.6108C60.5085 91.7065 60.4448 91.7383 60.3492 91.7383C60.2854 91.7383 60.1898 91.7383 60.0304 91.7383L59.1379 91.6746C58.9785 91.6746 58.8829 91.6746 58.8192 91.6746C56.8429 91.8021 55.1854 92.5352 53.8785 93.874C52.5717 95.149 51.456 96.9021 50.4998 99.0696C50.3404 99.5158 50.1492 99.9621 49.9898 100.44C49.7985 100.918 49.6392 101.428 49.4798 101.938C49.416 102.257 49.3523 102.512 49.3204 102.735C49.2885 102.958 49.2248 103.181 49.1292 103.436C49.0973 103.5 49.0335 103.596 48.8742 103.66C48.7148 103.755 48.5235 103.819 48.3323 103.883C48.141 103.946 47.9817 104.01 47.7904 104.042C47.631 104.074 47.5035 104.106 47.4398 104.106C46.7067 104.138 46.3242 103.405 46.2285 101.875C46.1967 101.46 46.1648 101.078 46.1967 100.759C46.1967 100.408 46.1967 100.09 46.2285 99.7708C46.2285 99.4521 46.2604 99.1333 46.2923 98.7827L46.611 95.7227C46.6748 95.0215 46.7704 94.3202 46.866 93.5871C46.9617 92.8858 47.0573 92.1846 47.1529 91.5471C47.2485 90.9096 47.376 90.3677 47.4717 89.9215C47.5992 89.4433 47.7585 89.0927 47.9498 88.8377C48.1729 88.6146 48.4598 88.4871 48.8423 88.4552C48.9698 88.4552 49.0654 88.4871 49.1929 88.5508C49.3204 88.6146 49.416 88.6783 49.5117 88.774C49.6073 88.8696 49.7029 88.9652 49.7667 89.0608C49.8304 89.1565 49.8623 89.2521 49.8942 89.3477C49.8942 89.6027 49.8942 89.8896 49.8623 90.2083C49.8304 90.4952 49.7985 90.814 49.7667 91.1327C49.7029 91.4833 49.6392 91.8021 49.5754 92.1208C49.4798 92.4715 49.416 92.7902 49.3523 93.0771C49.1929 93.6827 49.0973 94.1927 49.0017 94.6071C48.9379 95.0215 48.8742 95.4358 48.8104 95.8183C48.7785 96.2008 48.7148 96.6471 48.651 97.0933C48.6192 97.5396 48.5554 98.1133 48.4598 98.7508C48.651 98.3683 48.7785 98.0177 48.906 97.7627C49.0654 97.4758 49.161 97.2208 49.2567 96.9977C49.3842 96.8065 49.4798 96.6152 49.5754 96.4558C49.6392 96.2646 49.7348 96.1052 49.8623 95.914C49.9579 95.7546 50.0535 95.5315 50.181 95.3083C50.3085 95.1171 50.4679 94.8302 50.6592 94.5433C51.3923 93.3321 52.1573 92.344 52.986 91.579C53.8148 90.814 54.6117 90.2721 55.3767 89.9215C56.2692 89.5071 56.9704 89.284 57.5442 89.2521C57.7992 89.2521 58.1179 89.284 58.5004 89.3158C58.8829 89.3477 59.2335 89.4433 59.5842 89.539C59.9029 89.6665 60.2217 89.8258 60.4448 89.9852C60.6998 90.1765 60.8273 90.3996 60.8273 90.6546Z"
          fill="#1E130B"/>
    <path d="M80.4843 92.4712C80.4843 92.6306 80.3887 92.9175 80.1337 93.3C79.5918 94.065 79.018 94.8618 78.3487 95.6268C77.6793 96.4237 76.9462 97.1568 76.213 97.8581C75.448 98.5593 74.6512 99.1968 73.8543 99.8025C73.0255 100.408 72.2287 100.95 71.3999 101.396C70.5393 101.811 69.7424 102.161 68.9137 102.416C68.0849 102.639 67.288 102.767 66.523 102.735C64.8655 102.735 63.5587 102.257 62.6343 101.301C61.7418 100.344 61.2637 98.8781 61.2637 96.9337C61.2637 95.3081 61.5187 93.7143 62.0287 92.1843C62.5387 90.6543 63.3993 89.1562 64.6105 87.7537C64.8337 87.4987 65.0887 87.2437 65.3755 87.0206C65.6624 86.7975 65.9493 86.6062 66.268 86.415C66.5868 86.2556 66.9055 86.0962 67.2562 86.0006C67.5749 85.905 67.9255 85.8412 68.2762 85.8093C68.3399 85.8093 68.4674 85.8093 68.6268 85.8412C68.7543 85.8731 68.9137 85.905 69.073 85.9368C69.2324 86.0006 69.3918 86.0643 69.5512 86.16C69.7105 86.2237 69.838 86.3193 69.9337 86.4468C70.2205 86.7656 70.4437 87.1162 70.6349 87.4668C70.7943 87.8175 70.8899 88.2 70.9218 88.6143C70.9537 89.0925 70.8899 89.5706 70.7624 90.0487C70.6349 90.495 70.4118 90.9731 70.093 91.4512C69.8062 91.9293 69.3918 92.4393 68.8818 92.9493C68.4037 93.4593 67.798 94.0012 67.0968 94.6068C66.6505 94.9893 66.1405 95.4037 65.5987 95.85C65.0568 96.2962 64.3874 96.7743 63.6224 97.2525C63.6224 98.2725 63.9412 99.0375 64.5468 99.5475C65.1524 100.089 65.9812 100.344 67.033 100.344C67.6387 100.344 68.2443 100.281 68.818 100.121C69.4237 99.9618 70.0293 99.7706 70.603 99.5156C71.1768 99.2606 71.7505 98.9418 72.2924 98.6231C72.8343 98.3043 73.3443 97.9537 73.8224 97.635C74.7149 96.9975 75.5118 96.3281 76.213 95.6906C76.9462 95.0531 77.6474 94.3837 78.3487 93.6825L79.2093 92.8537C79.7193 92.4075 80.0699 92.1843 80.293 92.1843C80.4205 92.1843 80.4843 92.28 80.4843 92.4712ZM68.5949 89.3793C68.5949 89.22 68.563 89.0606 68.5312 88.9331C68.4993 88.7737 68.4355 88.6462 68.3718 88.5187C68.308 88.3912 68.2124 88.3275 68.1168 88.2637C68.0212 88.1681 67.9255 88.1362 67.798 88.1362C67.2243 88.1681 66.6824 88.5187 66.1405 89.1562C65.5987 89.7937 65.0568 90.6225 64.5787 91.6743C64.483 91.8975 64.3555 92.1525 64.2918 92.4393C64.1962 92.7262 64.1005 93.0131 64.0368 93.3318C63.9412 93.6187 63.8774 93.9056 63.8137 94.1925C63.7818 94.4793 63.718 94.7662 63.6862 94.9893C64.228 94.575 64.7062 94.1925 65.1843 93.8737C65.6305 93.5231 66.0449 93.1725 66.4593 92.79C66.7143 92.5668 66.9693 92.3118 67.2243 92.0568C67.4793 91.8018 67.7024 91.515 67.9255 91.2281C68.1487 90.9412 68.308 90.6225 68.4355 90.3356C68.563 90.0168 68.5949 89.6981 68.5949 89.3793Z"
          fill="#1E130B"/>
    <path d="M104.148 92.0942C104.148 92.2854 104.116 92.4767 104.052 92.6998C103.989 92.8911 103.893 93.0823 103.797 93.3054C103.702 93.4967 103.574 93.6879 103.447 93.8792C103.319 94.0704 103.224 94.2617 103.096 94.4529C102.809 94.8992 102.459 95.3773 102.044 95.8554C101.63 96.3336 101.215 96.8117 100.737 97.2579C100.291 97.736 99.813 98.1504 99.3348 98.5648C98.8248 98.9792 98.3467 99.3298 97.9005 99.6485C97.518 99.9035 97.1673 100.127 96.8167 100.35C96.498 100.573 96.1473 100.732 95.7967 100.892C95.4461 101.051 95.0955 101.179 94.713 101.274C94.3623 101.37 93.948 101.402 93.5017 101.402C92.6411 101.402 91.9398 101.21 91.398 100.764C91.143 100.541 90.888 100.254 90.6967 99.9035C90.4736 99.5529 90.3142 99.1704 90.1548 98.756C89.9955 98.3417 89.868 97.8635 89.7723 97.3854C89.6767 96.9073 89.5811 96.4611 89.4855 95.9829C89.3898 95.4092 89.3261 94.8673 89.2305 94.4211C89.1348 93.9429 89.0392 93.5604 88.9436 93.2417C88.848 92.9229 88.7205 92.6998 88.5611 92.5086C88.4017 92.3492 88.1786 92.2536 87.9555 92.2536C87.7323 92.2536 87.573 92.2854 87.3817 92.3173C87.1905 92.3811 87.0311 92.4448 86.8398 92.5723C86.6486 92.6998 86.4255 92.8592 86.2023 93.1142C85.9792 93.3373 85.6923 93.6242 85.4055 94.0067C85.0867 94.3892 84.7361 94.8354 84.3536 95.3773C83.9392 95.9192 83.493 96.5567 82.9511 97.2898C82.6961 97.6723 82.4092 98.0548 82.0586 98.501C81.6761 98.9473 81.3255 99.3617 80.9748 99.7442C80.5923 100.127 80.2417 100.477 79.8911 100.796C79.5405 101.083 79.2217 101.274 78.9348 101.37C78.0423 101.179 77.5642 100.031 77.5642 97.9592C77.5642 97.4173 77.628 96.5885 77.7555 95.4411C77.8192 94.9311 77.883 94.4211 77.9786 93.8473C78.0742 93.3054 78.1698 92.7317 78.2973 92.1898C78.4248 91.6479 78.5523 91.1061 78.7117 90.5642C78.8711 90.0542 79.0623 89.5761 79.2855 89.1298C79.3811 88.9067 79.5086 88.7473 79.6042 88.6198C79.7317 88.4923 79.8592 88.4286 79.9548 88.3648C80.0823 88.3011 80.2098 88.2692 80.3373 88.2692C80.4648 88.2373 80.5923 88.2373 80.7517 88.2373C80.9111 88.2373 81.0386 88.3329 81.1661 88.5879C81.2936 88.8111 81.3892 89.1298 81.3892 89.5123C81.3892 89.7673 81.3573 89.9904 81.3255 90.2136C81.2617 90.4367 81.198 90.6598 81.1342 90.8829C81.0705 91.1061 80.9748 91.3611 80.9111 91.6161C80.8155 91.9029 80.7517 92.1898 80.6561 92.5404C80.5923 92.8273 80.5286 93.1461 80.433 93.4648C80.3692 93.8154 80.3055 94.1661 80.2417 94.5167C80.178 94.8673 80.1142 95.2179 80.0505 95.5686C80.0186 95.8873 79.9867 96.2061 79.9867 96.4611C79.9867 96.6523 80.0186 96.8435 80.0823 97.0348C80.3692 97.0029 80.8473 96.5886 81.5167 95.7279C81.8673 95.3136 82.218 94.8354 82.6323 94.3254C83.0467 93.8154 83.493 93.2736 83.9711 92.6361C84.3217 92.1898 84.6723 91.7754 85.023 91.3611C85.3736 90.9786 85.7242 90.6279 86.1067 90.3411C86.4892 90.0542 86.8717 89.7992 87.2861 89.6398C87.7005 89.4804 88.1786 89.3848 88.6886 89.3848C89.2305 89.3848 89.6767 89.5123 90.0273 89.7354C90.378 89.9586 90.6967 90.2773 90.888 90.6917C91.1111 91.1061 91.2705 91.5842 91.398 92.1579C91.5255 92.7317 91.6211 93.3692 91.6848 94.0386C91.7486 94.6442 91.8123 95.2179 91.8761 95.7917C91.9398 96.3654 92.0355 96.8754 92.1948 97.3217C92.3861 97.7679 92.6092 98.1185 92.928 98.4054C93.2467 98.6923 93.693 98.8198 94.2667 98.8198C94.713 98.8198 95.1592 98.7242 95.6692 98.5329C96.1473 98.3098 96.6573 98.0229 97.1992 97.6404C97.7411 97.2898 98.3148 96.8435 98.8886 96.3654C99.4623 95.8554 100.036 95.3136 100.674 94.7079C100.897 94.4848 101.152 94.1979 101.439 93.8473C101.725 93.4967 102.012 93.1779 102.299 92.8592C102.554 92.5404 102.809 92.2536 103.064 92.0304C103.287 91.8073 103.479 91.6798 103.638 91.6798C103.702 91.6798 103.797 91.7117 103.925 91.7754C104.084 91.8392 104.148 91.9348 104.148 92.0942Z"
          fill="#1E130B"/>
    <path d="M125.354 92.4718C125.354 92.7268 125.29 92.9818 125.163 93.2368C124.94 93.683 124.43 94.3843 123.601 95.3405C123.187 95.8187 122.772 96.2649 122.326 96.7111C121.88 97.1574 121.402 97.6355 120.924 98.0818C120.414 98.5599 119.935 98.9743 119.457 99.3568C119.011 99.7393 118.533 100.058 118.087 100.377C117.226 100.982 116.525 101.269 115.983 101.269C115.792 101.269 115.505 101.206 115.186 101.046C114.549 100.759 114.007 100.186 113.624 99.3886C113.274 98.5918 112.987 97.763 112.827 96.9024C112.7 96.0099 112.54 95.0536 112.445 93.9699C111.17 96.3924 109.48 98.528 107.409 100.409C105.337 102.289 103.201 103.246 100.97 103.246C100.364 103.246 99.8861 102.927 99.5674 102.257C99.2486 101.62 99.0892 100.951 99.0892 100.249C99.0892 99.3249 99.153 98.6236 99.3124 98.1774C99.7586 96.8386 100.237 95.5955 100.81 94.448C101.384 93.2687 102.085 92.1212 102.882 91.0055C103.424 90.2724 103.998 89.5712 104.699 88.838C105.369 88.1049 106.006 87.5949 106.612 87.2762C107.377 86.8618 108.429 86.6705 109.831 86.6705C110.309 86.6705 110.755 86.9255 111.074 87.4674C111.425 88.0093 111.68 88.6468 111.871 89.348C112.03 90.113 112.126 90.7187 112.126 91.133C112.285 90.623 112.413 90.113 112.54 89.603C112.668 89.0612 112.764 88.5193 112.859 87.9455C112.955 87.4037 113.05 86.798 113.114 86.1924C113.21 85.5868 113.274 84.9174 113.337 84.2162C113.369 84.0249 113.369 83.7699 113.401 83.483C113.433 83.1962 113.433 82.8455 113.465 82.463C113.529 81.6662 113.592 80.9649 113.656 80.423C113.72 79.8493 113.815 79.4987 113.911 79.3393C114.166 78.9249 114.612 78.7018 115.218 78.7018C115.537 78.7018 115.855 78.7655 116.142 78.893C116.461 79.0205 116.62 79.2118 116.62 79.4349C116.62 79.5624 116.589 79.7537 116.557 80.0405C116.493 80.3274 116.429 80.678 116.365 81.1243C116.27 81.5705 116.174 82.1124 116.015 82.7818C115.887 83.4512 115.728 84.2162 115.569 85.1405C115.569 85.2362 115.537 85.4593 115.473 85.778C115.409 86.0649 115.377 86.4155 115.314 86.7662C115.25 87.1168 115.186 87.4355 115.122 87.7224C115.09 88.0093 115.059 88.2005 115.027 88.2643C114.899 89.1249 114.804 89.8899 114.708 90.623C114.612 91.388 114.58 92.1212 114.58 92.8862C114.58 93.4918 114.612 94.193 114.644 95.0218C114.676 95.8505 114.74 96.6474 114.867 97.4124C114.995 98.2093 115.186 98.5918 115.409 98.5918C116.27 98.5918 117.29 98.2093 118.501 97.4124C119.68 96.6474 120.828 95.723 121.944 94.703C123.059 93.683 124.047 92.7268 124.908 91.8024C124.972 91.7387 125.035 91.7068 125.067 91.7068C125.195 91.7068 125.259 91.8024 125.29 91.9618C125.322 92.153 125.354 92.3124 125.354 92.4718ZM110.851 93.4599C110.564 93.3962 110.373 93.2687 110.245 93.0455C110.086 92.8543 110.022 92.5993 110.022 92.3443C110.022 92.153 110.054 91.8343 110.118 91.4199C110.182 91.0374 110.214 90.7187 110.214 90.4955C110.214 90.3043 110.15 90.113 110.054 89.858C109.959 89.6349 109.831 89.4118 109.672 89.2205C109.512 88.9974 109.353 88.838 109.162 88.7105C108.97 88.5512 108.779 88.4874 108.588 88.4874C108.046 88.4874 107.281 89.0612 106.357 90.2087C105.879 90.8143 105.432 91.388 105.05 91.9299C104.635 92.4399 104.285 92.9818 103.934 93.5237C103.584 94.0974 103.265 94.6074 103.01 95.0855C102.755 95.5637 102.532 95.978 102.372 96.3605C101.767 97.6674 101.448 98.7193 101.448 99.4843C101.448 100.441 101.767 100.919 102.436 100.919C103.01 100.919 103.807 100.6 104.827 99.8986C105.879 99.1974 106.675 98.5599 107.249 97.9861C107.855 97.3486 108.333 96.8386 108.747 96.4243C109.13 95.978 109.449 95.6593 109.672 95.3724C109.895 95.1174 110.118 94.8305 110.309 94.5118C110.5 94.193 110.66 93.8424 110.851 93.4599Z"
          fill="#1E130B"/>
    <path d="M137.913 93.7816C137.913 94.2597 137.626 95.0247 137.053 96.0766C136.925 96.2678 136.766 96.4909 136.574 96.7778C136.351 97.0647 136.128 97.3516 135.873 97.6384C135.65 97.9253 135.363 98.2441 135.108 98.5309C134.853 98.8497 134.566 99.1366 134.311 99.3916C133.929 99.7741 133.483 100.157 133.004 100.539C132.558 100.922 132.048 101.24 131.506 101.559C130.996 101.846 130.454 102.101 129.913 102.26C129.339 102.452 128.797 102.547 128.255 102.547C127.554 102.547 126.884 102.42 126.247 102.165C125.641 101.91 125.099 101.495 124.621 100.953C124.175 100.412 123.793 99.7422 123.538 98.9134C123.283 98.1166 123.155 97.1603 123.155 96.0447C123.155 95.2797 123.187 94.4828 123.251 93.6541C123.314 92.8572 123.41 92.0284 123.538 91.1997C123.633 90.3709 123.761 89.5422 123.92 88.7134C124.048 87.9166 124.207 87.1197 124.334 86.3547C124.43 85.8447 124.526 85.4303 124.589 85.0797C124.653 84.7609 124.717 84.4422 124.749 84.1553C124.813 83.9003 124.844 83.6134 124.908 83.3266C124.94 83.0397 125.004 82.6891 125.068 82.2428L125.259 80.9359C125.291 80.6809 125.354 80.4259 125.482 80.2028C125.578 79.9797 125.705 79.7884 125.833 79.5972C125.992 79.4378 126.151 79.2784 126.374 79.1828C126.566 79.0872 126.789 79.0234 127.012 79.0234C127.522 79.0234 127.873 79.2784 128.128 79.7247C128.064 80.0434 128 80.3622 127.936 80.6491C127.873 80.9678 127.809 81.2547 127.745 81.6053C127.49 82.9122 127.267 83.9641 127.108 84.7609C126.948 85.5897 126.821 86.1634 126.757 86.4822C126.629 87.1516 126.502 87.8528 126.343 88.6178C126.215 89.3509 126.088 90.1478 125.96 90.9128C125.833 91.7097 125.737 92.4747 125.673 93.2397C125.609 94.0366 125.578 94.7378 125.578 95.4072C125.578 96.1084 125.641 96.7778 125.737 97.3516C125.864 97.9572 126.024 98.4353 126.279 98.8497C126.534 99.2641 126.884 99.5828 127.267 99.8378C127.681 100.061 128.159 100.157 128.733 100.157C129.339 100.157 129.976 100.029 130.55 99.7422C131.156 99.4872 131.729 99.1366 132.303 98.6903C132.845 98.2759 133.387 97.7978 133.865 97.2878C134.375 96.7778 134.821 96.2997 135.236 95.8216C135.586 95.4072 135.873 95.0884 136.128 94.8016C136.383 94.5147 136.574 94.2597 136.734 94.0684C136.893 93.9091 137.021 93.7497 137.212 93.5903C137.371 93.4309 137.531 93.3353 137.69 93.3353C137.849 93.3353 137.913 93.4947 137.913 93.7816Z"
          fill="#1E130B"/>
    <path d="M154.931 92.4712C154.931 92.6306 154.835 92.9175 154.58 93.3C154.038 94.065 153.464 94.8618 152.795 95.6268C152.126 96.4237 151.392 97.1568 150.659 97.8581C149.894 98.5593 149.097 99.1968 148.301 99.8025C147.472 100.408 146.675 100.95 145.846 101.396C144.986 101.811 144.189 102.161 143.36 102.416C142.531 102.639 141.734 102.767 140.969 102.735C139.312 102.735 138.005 102.257 137.081 101.301C136.188 100.344 135.71 98.8781 135.71 96.9337C135.71 95.3081 135.965 93.7143 136.475 92.1843C136.985 90.6543 137.846 89.1562 139.057 87.7537C139.28 87.4987 139.535 87.2437 139.822 87.0206C140.109 86.7975 140.396 86.6062 140.714 86.415C141.033 86.2556 141.352 86.0962 141.702 86.0006C142.021 85.905 142.372 85.8412 142.722 85.8093C142.786 85.8093 142.914 85.8093 143.073 85.8412C143.201 85.8731 143.36 85.905 143.519 85.9368C143.679 86.0006 143.838 86.0643 143.997 86.16C144.157 86.2237 144.284 86.3193 144.38 86.4468C144.667 86.7656 144.89 87.1162 145.081 87.4668C145.241 87.8175 145.336 88.2 145.368 88.6143C145.4 89.0925 145.336 89.5706 145.209 90.0487C145.081 90.495 144.858 90.9731 144.539 91.4512C144.252 91.9293 143.838 92.4393 143.328 92.9493C142.85 93.4593 142.244 94.0012 141.543 94.6068C141.097 94.9893 140.587 95.4037 140.045 95.85C139.503 96.2962 138.834 96.7743 138.069 97.2525C138.069 98.2725 138.387 99.0375 138.993 99.5475C139.599 100.089 140.427 100.344 141.479 100.344C142.085 100.344 142.691 100.281 143.264 100.121C143.87 99.9618 144.476 99.7706 145.049 99.5156C145.623 99.2606 146.197 98.9418 146.739 98.6231C147.281 98.3043 147.791 97.9537 148.269 97.635C149.161 96.9975 149.958 96.3281 150.659 95.6906C151.392 95.0531 152.094 94.3837 152.795 93.6825L153.656 92.8537C154.166 92.4075 154.516 92.1843 154.739 92.1843C154.867 92.1843 154.931 92.28 154.931 92.4712ZM143.041 89.3793C143.041 89.22 143.009 89.0606 142.977 88.9331C142.946 88.7737 142.882 88.6462 142.818 88.5187C142.754 88.3912 142.659 88.3275 142.563 88.2637C142.467 88.1681 142.372 88.1362 142.244 88.1362C141.671 88.1681 141.129 88.5187 140.587 89.1562C140.045 89.7937 139.503 90.6225 139.025 91.6743C138.929 91.8975 138.802 92.1525 138.738 92.4393C138.642 92.7262 138.547 93.0131 138.483 93.3318C138.387 93.6187 138.324 93.9056 138.26 94.1925C138.228 94.4793 138.164 94.7662 138.132 94.9893C138.674 94.575 139.152 94.1925 139.631 93.8737C140.077 93.5231 140.491 93.1725 140.906 92.79C141.161 92.5668 141.416 92.3118 141.671 92.0568C141.926 91.8018 142.149 91.515 142.372 91.2281C142.595 90.9412 142.754 90.6225 142.882 90.3356C143.009 90.0168 143.041 89.6981 143.041 89.3793Z"
          fill="#1E130B"/>
    <path d="M54.3594 113.907L54.1123 114.704H55.6822L55.4352 113.907C55.3395 113.612 55.2519 113.325 55.1642 113.038C55.0766 112.744 54.9969 112.449 54.9092 112.146H54.8773C54.7977 112.449 54.718 112.744 54.6303 113.038C54.5427 113.325 54.455 113.612 54.3594 113.907ZM52.7656 116.831L54.5347 111.604H55.2838L57.0528 116.831H56.3436L55.8495 115.238H53.945L53.443 116.831H52.7656Z"
          fill="#3F3D3A"/>
    <path d="M58.4309 116.831V111.604H60.0645C60.3275 111.604 60.5745 111.628 60.8056 111.676C61.0287 111.732 61.22 111.811 61.3873 111.931C61.5467 112.05 61.6742 112.202 61.7618 112.385C61.8495 112.568 61.8973 112.799 61.8973 113.07C61.8973 113.477 61.7937 113.803 61.5786 114.05C61.3634 114.297 61.0765 114.465 60.7179 114.552L62.0487 116.831H61.2997L60.0406 114.624H59.0923V116.831H58.4309ZM59.0923 114.082H59.9689C60.3753 114.082 60.694 113.995 60.9092 113.827C61.1243 113.66 61.2359 113.413 61.2359 113.07C61.2359 112.728 61.1243 112.481 60.9092 112.345C60.694 112.21 60.3753 112.138 59.9689 112.138H59.0923V114.082Z"
          fill="#3F3D3A"/>
    <path d="M65.5311 116.929C65.2043 116.929 64.9015 116.866 64.6306 116.738C64.3517 116.611 64.1206 116.427 63.9214 116.188C63.7221 115.957 63.5707 115.67 63.4671 115.328C63.3556 114.993 63.2998 114.618 63.2998 114.196C63.2998 113.774 63.3556 113.399 63.4671 113.072C63.5707 112.738 63.7221 112.451 63.9214 112.22C64.1206 111.989 64.3517 111.813 64.6306 111.694C64.9015 111.574 65.2043 111.511 65.5311 111.511C65.8578 111.511 66.1606 111.574 66.4395 111.694C66.7104 111.821 66.9415 111.997 67.1487 112.228C67.3479 112.459 67.4993 112.746 67.6109 113.08C67.7145 113.407 67.7703 113.782 67.7703 114.196C67.7703 114.618 67.7145 114.993 67.6109 115.328C67.4993 115.67 67.3479 115.957 67.1487 116.188C66.9415 116.427 66.7104 116.611 66.4395 116.738C66.1606 116.866 65.8578 116.929 65.5311 116.929ZM65.5311 116.348C65.7621 116.348 65.9773 116.3 66.1606 116.196C66.3518 116.093 66.5192 115.949 66.6467 115.758C66.7901 115.575 66.8937 115.344 66.9654 115.081C67.0371 114.818 67.077 114.523 67.077 114.196C67.077 113.869 67.0371 113.582 66.9654 113.32C66.8937 113.057 66.7901 112.841 66.6467 112.658C66.5192 112.475 66.3518 112.339 66.1606 112.236C65.9773 112.14 65.7621 112.092 65.5311 112.092C65.3 112.092 65.0848 112.14 64.9015 112.236C64.7103 112.339 64.5509 112.475 64.4154 112.658C64.272 112.841 64.1684 113.057 64.0967 113.32C64.025 113.582 63.9851 113.869 63.9851 114.196C63.9851 114.523 64.025 114.818 64.0967 115.081C64.1684 115.344 64.272 115.575 64.4154 115.758C64.5509 115.949 64.7103 116.093 64.9015 116.196C65.0848 116.3 65.3 116.348 65.5311 116.348Z"
          fill="#3F3D3A"/>
    <path d="M69.5319 116.831V111.604H70.3287L71.3328 114.393C71.3965 114.576 71.4603 114.752 71.524 114.943C71.5798 115.118 71.6436 115.301 71.7073 115.485H71.7392C71.803 115.301 71.8667 115.118 71.9225 114.943C71.9783 114.752 72.034 114.576 72.0978 114.393L73.0859 111.604H73.8908V116.831H73.2692V113.955C73.2692 113.724 73.2772 113.461 73.3011 113.182C73.325 112.903 73.3409 112.64 73.3569 112.409H73.325L72.9106 113.596L71.9225 116.306H71.4842L70.4961 113.596L70.0817 112.409H70.0498C70.0658 112.64 70.0817 112.903 70.1056 113.182C70.1215 113.461 70.1295 113.724 70.1295 113.955V116.831H69.5319Z"
          fill="#3F3D3A"/>
    <path d="M76.8635 113.907L76.6165 114.704H78.1863L77.9393 113.907C77.8437 113.612 77.756 113.325 77.6684 113.038C77.5807 112.744 77.501 112.449 77.4134 112.146H77.3815C77.3018 112.449 77.2221 112.744 77.1345 113.038C77.0468 113.325 76.9591 113.612 76.8635 113.907ZM75.2698 116.831L77.0388 111.604H77.7879L79.557 116.831H78.8477L78.3537 115.238H76.4491L75.9471 116.831H75.2698Z"
          fill="#3F3D3A"/>
    <path d="M85.1428 116.929C84.8161 116.929 84.5133 116.866 84.2344 116.746C83.9555 116.627 83.7164 116.443 83.5172 116.212C83.31 115.981 83.1506 115.702 83.0391 115.36C82.9196 115.025 82.8638 114.642 82.8638 114.22C82.8638 113.798 82.9196 113.423 83.0391 113.088C83.1586 112.754 83.318 112.467 83.5252 112.236C83.7324 112.005 83.9794 111.821 84.2583 111.694C84.5372 111.574 84.848 111.511 85.1827 111.511C85.5014 111.511 85.7803 111.574 86.0274 111.702C86.2664 111.837 86.4656 111.989 86.617 112.156L86.2585 112.586C86.123 112.435 85.9636 112.315 85.7883 112.228C85.613 112.14 85.4138 112.092 85.1906 112.092C84.9436 112.092 84.7125 112.14 84.5133 112.236C84.3141 112.339 84.1388 112.475 83.9953 112.658C83.8519 112.849 83.7403 113.065 83.6686 113.327C83.5889 113.59 83.5491 113.877 83.5491 114.204C83.5491 114.531 83.5889 114.826 83.6686 115.089C83.7403 115.352 83.8519 115.583 83.9874 115.766C84.1228 115.949 84.2981 116.093 84.4974 116.196C84.6886 116.3 84.9197 116.348 85.1667 116.348C85.4217 116.348 85.6449 116.292 85.8361 116.188C86.0274 116.085 86.2106 115.941 86.378 115.758L86.7445 116.172C86.5374 116.411 86.3063 116.595 86.0433 116.73C85.7803 116.866 85.4855 116.929 85.1428 116.929Z"
          fill="#3F3D3A"/>
    <path d="M89.2551 113.907L89.0081 114.704H90.5779L90.3309 113.907C90.2353 113.612 90.1476 113.325 90.06 113.038C89.9723 112.744 89.8926 112.449 89.805 112.146H89.7731C89.6934 112.449 89.6137 112.744 89.5261 113.038C89.4384 113.325 89.3508 113.612 89.2551 113.907ZM87.6614 116.831L89.4304 111.604H90.1795L91.9486 116.831H91.2393L90.7453 115.238H88.8408L88.3387 116.831H87.6614Z"
          fill="#3F3D3A"/>
    <path d="M93.3267 116.831V111.604H94.012L95.9006 114.887L96.4663 115.971H96.4982C96.4823 115.708 96.4663 115.429 96.4504 115.142C96.4265 114.863 96.4185 114.584 96.4185 114.305V111.604H97.0481V116.831H96.3628L94.4662 113.54L93.9004 112.465H93.8685C93.8924 112.728 93.9084 112.999 93.9323 113.269C93.9482 113.548 93.9562 113.819 93.9562 114.098V116.831H93.3267Z"
          fill="#3F3D3A"/>
    <path d="M99.1204 116.831V111.604H100.427C101.232 111.604 101.846 111.827 102.268 112.273C102.69 112.72 102.898 113.357 102.898 114.194C102.898 114.608 102.842 114.975 102.738 115.301C102.635 115.628 102.475 115.907 102.268 116.138C102.061 116.361 101.806 116.529 101.503 116.648C101.2 116.768 100.85 116.831 100.459 116.831H99.1204ZM99.7818 116.29H100.379C100.993 116.29 101.447 116.106 101.758 115.74C102.061 115.373 102.212 114.855 102.212 114.194C102.212 113.532 102.061 113.022 101.758 112.672C101.447 112.321 100.993 112.146 100.379 112.146H99.7818V116.29Z"
          fill="#3F3D3A"/>
    <path d="M104.658 116.831V111.604H105.32V116.266H107.607V116.831H104.658Z" fill="#3F3D3A"/>
    <path d="M109.168 116.831V111.604H112.18V112.162H109.829V113.803H111.814V114.369H109.829V116.266H112.26V116.831H109.168Z"
          fill="#3F3D3A"/>
    <path d="M115.456 116.929C115.09 116.929 114.747 116.858 114.436 116.722C114.125 116.587 113.854 116.395 113.623 116.156L114.022 115.694C114.205 115.893 114.428 116.045 114.675 116.164C114.93 116.284 115.193 116.348 115.464 116.348C115.807 116.348 116.078 116.268 116.269 116.109C116.46 115.957 116.556 115.75 116.556 115.495C116.556 115.36 116.532 115.248 116.492 115.152C116.444 115.065 116.38 114.985 116.309 114.913C116.229 114.85 116.133 114.794 116.03 114.738C115.926 114.682 115.807 114.626 115.687 114.571L114.938 114.244C114.819 114.188 114.691 114.124 114.564 114.053C114.436 113.981 114.325 113.885 114.221 113.782C114.117 113.678 114.038 113.551 113.974 113.399C113.91 113.256 113.878 113.088 113.878 112.897C113.878 112.698 113.918 112.515 114.006 112.347C114.085 112.18 114.197 112.029 114.348 111.901C114.492 111.782 114.659 111.686 114.866 111.614C115.066 111.542 115.281 111.511 115.52 111.511C115.831 111.511 116.125 111.566 116.388 111.686C116.651 111.813 116.883 111.965 117.066 112.156L116.707 112.586C116.548 112.435 116.373 112.307 116.181 112.22C115.982 112.132 115.767 112.092 115.52 112.092C115.225 112.092 114.994 112.156 114.819 112.292C114.635 112.427 114.548 112.618 114.548 112.857C114.548 112.985 114.572 113.096 114.627 113.176C114.675 113.264 114.739 113.343 114.827 113.407C114.914 113.479 115.002 113.535 115.105 113.59C115.209 113.638 115.313 113.686 115.416 113.726L116.157 114.045C116.309 114.108 116.444 114.18 116.58 114.26C116.715 114.347 116.827 114.443 116.922 114.555C117.018 114.658 117.09 114.786 117.153 114.937C117.209 115.081 117.233 115.248 117.233 115.439C117.233 115.646 117.193 115.838 117.114 116.021C117.026 116.204 116.906 116.364 116.755 116.491C116.604 116.635 116.412 116.738 116.197 116.81C115.982 116.89 115.735 116.929 115.456 116.929Z"
          fill="#3F3D3A"/>
    <defs>
        <radialGradient id="paint0_radial" cx="0" cy="0" r="1" gradientUnits="userSpaceOnUse"
                        gradientTransform="translate(85.1398 97.6172) scale(52.1289 75.7499)">
            <stop stop-color="white"/>
            <stop offset="0.45" stop-color="#FDE5CE"/>
            <stop offset="0.58" stop-color="#FBDAC1"/>
            <stop offset="0.7" stop-color="#FAC9AC"/>
            <stop offset="0.82" stop-color="#D7997D"/>
            <stop offset="0.92" stop-color="#904736"/>
            <stop offset="1" stop-color="#1E130B"/>
        </radialGradient>
    </defs>
</svg>
