<svg width="70" height="70" viewBox="0 0 70 70" fill="none" xmlns="http://www.w3.org/2000/svg">
    <g clip-path="url(#clip0)">
        <path d="M59 20.6529C55.9806 20.7921 56.0465 20.7807 55.7052 20.8093L57.4934 15.7025C57.4934 15.7025 51.9116 17.7558 50.4966 18.1231C46.7803 14.7829 41.2563 14.6353 37.3071 17.0626C34.0731 19.0507 32.3373 22.4649 32.9163 26.4555C26.6222 25.5821 21.3191 22.5986 17.1322 17.5691L15.808 15.9786L14.8185 17.7957C13.5679 20.0919 13.1526 22.7173 13.6488 25.1881C13.8524 26.2017 14.1985 27.1685 14.6779 28.0738L13.5419 27.6336L13.4071 29.5317C13.2705 31.4598 13.9125 33.7105 15.1246 35.5518C15.4659 36.0704 15.9054 36.6399 16.4624 37.2016L15.8754 37.1115L16.5917 39.2865C17.5332 42.144 19.4888 44.3548 22.0266 45.5838C19.4921 46.6594 17.4446 47.3457 14.0791 48.4527L11 49.4649L13.844 51.0199C14.9283 51.6128 18.76 53.5929 22.5459 54.1869C30.9614 55.5067 40.4364 54.4318 46.8151 48.6871C52.1877 43.8484 53.9507 36.9654 53.5845 29.8027C53.5292 28.7183 53.8262 27.6834 54.4209 26.8891C55.6122 25.2987 58.9927 20.6635 59 20.6529ZM52.172 25.2046C51.1843 26.5233 50.6896 28.2075 50.7782 29.9463C51.1477 37.1712 49.1819 42.7743 44.9349 46.599C39.9739 51.0671 31.9718 52.8209 22.9813 51.4106C21.3531 51.1554 19.6704 50.5837 18.2777 50.0128C21.0994 49.042 23.2783 48.1766 26.7972 46.5111L31.7096 44.186L26.286 43.8388C23.6881 43.6726 21.5249 42.4135 20.1952 40.3693C20.9012 40.3283 21.582 40.2141 22.2599 40.0251L27.4326 38.5844L22.2167 37.3071C19.6821 36.6864 18.2374 35.1699 17.4717 34.0068C16.9689 33.2425 16.6404 32.4596 16.4434 31.7378C16.9663 31.878 17.576 31.978 18.5593 32.0754L23.3871 32.5529L19.562 29.5691C16.8059 27.4194 15.7014 24.1898 16.5111 21.085C25.1127 30.0067 35.212 29.3361 36.2286 29.572C36.0049 27.3985 35.999 27.3934 35.9404 27.1865C34.6385 22.5843 37.4917 20.2475 38.7786 19.4565C41.4665 17.8045 45.7333 17.5555 48.6886 20.2772C49.3269 20.8646 50.1901 21.0957 50.9979 20.895C51.723 20.7148 52.3181 20.524 52.9007 20.3164L51.6879 23.78L53.2362 23.7811C52.944 24.1729 52.5935 24.6421 52.172 25.2046Z"
              fill="#3F3D3A"/>
    </g>
    <defs>
        <clipPath id="clip0">
            <rect width="70" height="70" fill="white"/>
        </clipPath>
    </defs>
</svg>
